<svg width="188" height="73" viewBox="0 0 188 73" fill="none" xmlns="http://www.w3.org/2000/svg">
<path d="M28.7306 48.328C27.2053 48.328 26.1306 47.7213 25.5066 46.508C24.8826 45.3293 24.5706 43.9427 24.5706 42.348C24.5706 40.9267 24.7613 39.5227 25.1426 38.136C25.5586 36.7493 26.044 35.692 26.5986 34.964C25.6626 36.0733 24.5013 37.3387 23.1146 38.76C21.728 40.1813 20.2026 41.5507 18.5386 42.868C16.8746 44.1853 15.1586 45.2773 13.3906 46.144C11.6226 47.0107 9.87196 47.444 8.13863 47.444C7.61863 47.444 7.09863 47.392 6.57863 47.288C6.09329 47.2187 5.60796 47.08 5.12263 46.872C3.83996 46.352 2.88663 45.4333 2.26263 44.116C1.63863 42.764 1.32663 41.152 1.32663 39.28C1.32663 37.304 1.65596 35.1893 2.31463 32.936C3.00796 30.648 4.01329 28.3253 5.33063 25.968C5.95463 24.824 6.64796 23.6973 7.41063 22.588C8.20796 21.444 9.05729 20.3693 9.95863 19.364C8.88396 18.8787 7.89596 18.3413 6.99463 17.752C6.09329 17.128 5.33063 16.452 4.70663 15.724C4.29063 15.2387 3.97863 14.6667 3.77063 14.008C3.56263 13.3493 3.45863 12.708 3.45863 12.084C3.45863 10.9747 3.71863 10.2467 4.23863 9.9C4.41196 9.62267 4.61996 9.484 4.86263 9.484C5.17463 9.484 5.33063 9.67466 5.33063 10.056C5.33063 10.2987 5.26129 10.5587 5.12263 10.836C4.94929 11.2867 4.86263 11.7027 4.86263 12.084C4.86263 12.6387 5.00129 13.1587 5.27863 13.644C5.55596 14.0947 5.88529 14.528 6.26663 14.944C7.37596 16.2613 8.90129 17.3533 10.8426 18.22C13.0613 15.7933 15.488 13.5573 18.1226 11.512C20.792 9.432 23.652 7.768 26.7026 6.52C29.7533 5.272 32.96 4.648 36.3226 4.648C39.1306 4.648 41.332 5.272 42.9266 6.52C44.5213 7.73333 45.3186 9.31066 45.3186 11.252C45.3186 12.188 45.0413 13.2107 44.4866 14.32C43.932 15.3947 43.0306 16.452 41.7826 17.492C40.5346 18.4973 38.8706 19.3813 36.7906 20.144C34.7453 20.872 32.1973 21.3747 29.1466 21.652C28.072 21.756 27.1013 21.8427 26.2346 21.912C25.4026 21.9467 24.5013 21.964 23.5306 21.964C21.728 21.964 19.9773 21.8427 18.2786 21.6C16.6146 21.3573 14.9506 20.976 13.2866 20.456C12.6626 21.3227 11.8653 22.5013 10.8946 23.992C9.95863 25.4827 9.02263 27.0773 8.08663 28.776C7.15063 30.4747 6.37063 32.0867 5.74663 33.612C5.19196 35.068 4.77596 36.4027 4.49863 37.616C4.22129 38.7947 4.08263 39.852 4.08263 40.788C4.08263 42.4867 4.48129 43.7693 5.27863 44.636C6.07596 45.468 7.15063 45.884 8.50263 45.884C9.81996 45.884 11.3106 45.5027 12.9746 44.74C14.6733 43.9773 16.4413 42.8333 18.2786 41.308C20.116 39.7827 21.9013 38.0667 23.6346 36.16C25.4026 34.2533 27.0146 32.312 28.4706 30.336C29.9266 28.36 31.1053 26.54 32.0066 24.876C32.596 23.7667 33.168 22.9867 33.7226 22.536C34.2773 22.0507 34.7453 21.808 35.1266 21.808C35.508 21.808 35.8026 21.964 36.0106 22.276C36.2186 22.5533 36.3226 22.9347 36.3226 23.42C36.3226 24.3907 35.8893 25.3613 35.0226 26.332C34.052 27.4067 33.0986 28.724 32.1626 30.284C31.2266 31.844 30.3946 33.4907 29.6666 35.224C28.9386 36.9573 28.4186 38.656 28.1066 40.32C28.0026 40.8747 27.9333 41.3947 27.8986 41.88C27.864 42.3653 27.8466 42.7987 27.8466 43.18C27.8466 44.4627 28.0373 45.3813 28.4186 45.936C28.8346 46.4907 29.372 46.768 30.0306 46.768C30.828 46.768 31.7466 46.404 32.7866 45.676C33.8266 44.948 34.832 43.9773 35.8026 42.764C36.6346 41.6547 37.432 40.476 38.1946 39.228C38.992 37.98 39.72 36.68 40.3786 35.328C40.4826 35.0853 40.6213 34.912 40.7946 34.808C41.0026 34.6693 41.1413 34.6 41.2106 34.6C41.384 34.6 41.4706 34.704 41.4706 34.912C41.4706 35.0507 41.4186 35.2587 41.3146 35.536C41.0026 36.2293 40.5866 37.0613 40.0666 38.032C39.5466 39.0027 38.9746 40.008 38.3506 41.048C37.7266 42.0533 37.0853 42.9893 36.4266 43.856C35.5253 45.0347 34.3813 46.0747 32.9946 46.976C31.6426 47.8773 30.2213 48.328 28.7306 48.328ZM23.0626 20.716C24.8653 20.716 26.876 20.612 29.0946 20.404C31.972 20.1613 34.468 19.5893 36.5826 18.688C38.6973 17.7867 40.3266 16.6427 41.4706 15.256C42.6146 13.8693 43.1866 12.3267 43.1866 10.628C43.1866 9.10266 42.5453 7.94133 41.2626 7.144C40.0146 6.34666 38.42 5.948 36.4786 5.948C33.2546 5.948 30.308 6.58933 27.6386 7.872C25.004 9.12 22.5773 10.7667 20.3586 12.812C18.1746 14.8573 16.0946 17.0587 14.1186 19.416C16.7533 20.2827 19.7346 20.716 23.0626 20.716ZM43.1253 45.156C41.6693 45.156 40.6813 44.7747 40.1613 44.012C39.6413 43.2147 39.3813 42.2787 39.3813 41.204C39.3813 40.0947 39.5373 38.9507 39.8493 37.772C40.1613 36.5933 40.4386 35.6053 40.6813 34.808C41.2359 32.8667 41.9293 30.804 42.7613 28.62C43.6279 26.4013 44.5639 24.2347 45.5693 22.12C46.6093 19.9707 47.6319 18.0467 48.6373 16.348C49.4346 14.996 50.2839 13.9907 51.1853 13.332C52.1213 12.6387 52.9359 12.292 53.6293 12.292C54.1839 12.292 54.6173 12.5 54.9293 12.916C55.2759 13.2973 55.4493 13.8867 55.4493 14.684C55.4493 15.2387 55.3453 15.8973 55.1373 16.66C54.9639 17.4227 54.6519 18.2893 54.2013 19.26C52.9879 21.964 51.5319 24.668 49.8333 27.372C48.1693 30.076 46.0546 32.6067 43.4893 34.964C43.3506 35.4147 43.1599 35.952 42.9173 36.576C42.7093 37.1653 42.5186 37.772 42.3453 38.396C42.1373 39.332 42.0333 40.1293 42.0333 40.788C42.0333 41.8627 42.2413 42.6773 42.6573 43.232C43.1079 43.752 43.6453 44.012 44.2693 44.012C44.8239 44.012 45.4133 43.8213 46.0373 43.44C46.6613 43.024 47.2506 42.4347 47.8053 41.672C48.6373 40.4587 49.3826 39.228 50.0413 37.98C50.7346 36.6973 51.2546 35.7093 51.6013 35.016C51.8093 34.6347 52.0346 34.444 52.2773 34.444C52.4506 34.444 52.5373 34.548 52.5373 34.756C52.5373 34.9293 52.4853 35.12 52.3813 35.328C52.0693 36.0213 51.6533 36.9227 51.1333 38.032C50.6479 39.1067 50.0239 40.1987 49.2613 41.308C48.5333 42.3827 47.6493 43.3013 46.6093 44.064C45.6039 44.792 44.4426 45.156 43.1253 45.156ZM43.9053 33.3C45.1533 32.0173 46.3666 30.544 47.5453 28.88C48.7239 27.1813 49.8159 25.4307 50.8213 23.628C51.8613 21.7907 52.7279 20.0573 53.4213 18.428C53.6639 17.908 53.8546 17.336 53.9933 16.712C54.1666 16.088 54.2533 15.568 54.2533 15.152C54.2533 14.6667 54.1319 14.424 53.8893 14.424C53.7506 14.424 53.5426 14.5627 53.2653 14.84C52.9879 15.0827 52.6239 15.516 52.1733 16.14C51.5146 17.0067 50.7866 18.1853 49.9893 19.676C49.2266 21.1667 48.4466 22.7613 47.6493 24.46C46.8519 26.1587 46.1239 27.8053 45.4653 29.4C44.8066 30.96 44.2866 32.26 43.9053 33.3ZM57.4196 23.888C56.8996 23.888 56.4663 23.7147 56.1196 23.368C55.8076 22.9867 55.6516 22.536 55.6516 22.016C55.6516 21.3573 55.9116 20.7853 56.4316 20.3C56.9516 19.8147 57.5236 19.572 58.1476 19.572C58.7023 19.572 59.1529 19.7453 59.4996 20.092C59.8463 20.4387 60.0196 20.8547 60.0196 21.34C60.0196 21.9987 59.7596 22.588 59.2396 23.108C58.7196 23.628 58.1129 23.888 57.4196 23.888ZM53.2076 45C51.9249 45 51.0236 44.636 50.5036 43.908C49.9836 43.1453 49.7236 42.2787 49.7236 41.308C49.7236 40.788 49.7756 40.268 49.8796 39.748C50.0183 39.1933 50.1743 38.6907 50.3476 38.24L53.8316 29.348C53.9356 29.0707 53.9876 28.828 53.9876 28.62C53.9876 28.2733 53.9009 27.9787 53.7276 27.736C53.5543 27.4587 53.4329 27.268 53.3636 27.164L56.2236 27.06C56.7436 27.0253 57.1076 27.0947 57.3156 27.268C57.5583 27.4067 57.6796 27.58 57.6796 27.788C57.6796 27.996 57.5583 28.3773 57.3156 28.932L52.9996 39.072C52.9996 39.072 52.8956 39.2973 52.6876 39.748C52.5143 40.164 52.4103 40.4413 52.3756 40.58C52.2716 41.1 52.2023 41.4293 52.1676 41.568C52.1329 41.7067 52.1156 41.7933 52.1156 41.828C52.1156 41.8627 52.1156 42.0013 52.1156 42.244C52.1156 42.6947 52.2196 43.076 52.4276 43.388C52.6703 43.7 53.0689 43.856 53.6236 43.856C53.9703 43.856 54.3689 43.752 54.8196 43.544C55.2703 43.336 55.5996 43.128 55.8076 42.92C56.6743 42.0187 57.5236 40.84 58.3556 39.384C59.2223 37.8933 60.0196 36.42 60.7476 34.964C60.8863 34.6173 61.0596 34.444 61.2676 34.444C61.4409 34.444 61.5276 34.5653 61.5276 34.808C61.5276 34.9467 61.4756 35.1547 61.3716 35.432C61.0249 36.16 60.5916 37.0613 60.0716 38.136C59.5516 39.2107 58.9276 40.2853 58.1996 41.36C57.5063 42.4 56.7436 43.2667 55.9116 43.96C55.0796 44.6533 54.1783 45 53.2076 45ZM65.0522 45.208C63.0762 45.208 61.6896 44.74 60.8922 43.804C60.0949 42.8333 59.6962 41.6547 59.6962 40.268C59.6962 38.7427 60.0429 37.1133 60.7362 35.38C61.4642 33.6467 62.3136 32.1387 63.2842 30.856C64.2896 29.504 65.3989 28.464 66.6122 27.736C67.8256 26.9733 69.0562 26.592 70.3042 26.592C71.6216 26.592 72.5922 26.9213 73.2162 27.58C73.8402 28.2387 74.0829 29.1227 73.9442 30.232C73.8749 30.9253 73.5456 31.6187 72.9562 32.312C72.3669 32.9707 71.7776 33.3 71.1882 33.3C70.9109 33.3 70.6682 33.196 70.4602 32.988C70.7376 32.6413 71.0322 32.2253 71.3442 31.74C71.6562 31.2547 71.8816 30.7867 72.0202 30.336C72.1589 29.92 72.2282 29.504 72.2282 29.088C72.2282 28.2213 71.8122 27.788 70.9802 27.788C70.0442 27.788 69.0562 28.2733 68.0162 29.244C67.0109 30.18 66.1269 31.2027 65.3642 32.312C65.0522 32.728 64.6709 33.3867 64.2202 34.288C63.8042 35.1547 63.4229 36.1253 63.0762 37.2C62.7296 38.24 62.5562 39.2627 62.5562 40.268C62.5562 41.308 62.7816 42.244 63.2322 43.076C63.7176 43.8733 64.5149 44.272 65.6242 44.272C67.1496 44.272 68.4496 43.804 69.5242 42.868C70.6336 41.8973 71.6042 40.7013 72.4362 39.28C73.3029 37.8587 74.0829 36.472 74.7762 35.12C74.9842 34.704 75.1922 34.496 75.4002 34.496C75.5736 34.496 75.6602 34.6347 75.6602 34.912C75.6602 35.0507 75.6082 35.224 75.5042 35.432C74.6722 37.2347 73.8229 38.8813 72.9562 40.372C72.0896 41.8627 71.0322 43.0413 69.7842 43.908C68.5709 44.7747 66.9936 45.208 65.0522 45.208ZM77.9868 45.208C76.7041 45.208 75.5428 44.792 74.5028 43.96C73.4975 43.128 72.9948 41.8627 72.9948 40.164C72.9948 38.604 73.3761 36.94 74.1388 35.172C74.9015 33.3693 75.8721 31.792 77.0508 30.44C78.0561 29.2613 79.1828 28.2907 80.4308 27.528C81.6788 26.7653 82.8575 26.384 83.9668 26.384C84.7295 26.384 85.3881 26.592 85.9428 27.008C86.5321 27.4587 86.8268 28.1 86.8268 28.932C86.8268 29.7987 86.4975 30.752 85.8388 31.792C85.1801 32.832 84.2441 33.8027 83.0308 34.704C82.5108 35.0853 81.8521 35.4493 81.0548 35.796C80.2575 36.1427 79.4601 36.4373 78.6628 36.68C77.8655 36.888 77.2068 36.992 76.6868 36.992C76.5135 37.408 76.3401 37.9627 76.1668 38.656C76.0281 39.3493 75.9588 40.06 75.9588 40.788C75.9588 41.6547 76.1321 42.4347 76.4788 43.128C76.8255 43.8213 77.4668 44.168 78.4028 44.168C79.5468 44.168 80.5868 43.8387 81.5228 43.18C82.4588 42.5213 83.2908 41.7067 84.0188 40.736C84.7468 39.7307 85.3535 38.7253 85.8388 37.72C86.3588 36.7147 86.7748 35.8653 87.0868 35.172C87.2948 34.6867 87.5721 34.444 87.9188 34.444C88.0921 34.444 88.1788 34.5307 88.1788 34.704C88.1788 34.8427 88.1268 35.016 88.0228 35.224C87.5375 36.264 87.0175 37.3733 86.4628 38.552C85.9081 39.696 85.2495 40.788 84.4868 41.828C83.7241 42.8333 82.8055 43.648 81.7308 44.272C80.6908 44.896 79.4428 45.208 77.9868 45.208ZM77.0508 36.056C77.5361 36.056 78.3508 35.8827 79.4948 35.536C80.6388 35.1547 81.6788 34.5653 82.6148 33.768C83.5161 32.9707 84.2095 32.104 84.6948 31.168C85.1801 30.1973 85.4228 29.3827 85.4228 28.724C85.4228 27.9613 85.1455 27.58 84.5908 27.58C84.1748 27.58 83.6028 27.8573 82.8748 28.412C82.1468 28.9667 81.2455 29.9027 80.1708 31.22C79.5121 32.052 78.8881 32.9533 78.2988 33.924C77.7095 34.8947 77.2935 35.6053 77.0508 36.056ZM139.857 60.704C139.545 60.704 139.476 60.4613 139.649 59.976C139.857 59.5253 140.048 59.1093 140.221 58.728C140.533 58.104 140.689 57.1333 140.689 55.816C140.689 54.672 140.481 53.4413 140.065 52.124C139.649 50.8067 138.834 49.6107 137.621 48.536C135.957 47.0107 134.085 45.7973 132.005 44.896C129.925 43.9947 127.741 43.2667 125.453 42.712C123.2 42.1573 120.964 41.672 118.745 41.256C117.393 43.128 115.937 44.8093 114.377 46.3C112.852 47.7907 111.222 48.9347 109.489 49.732C108.518 50.1827 107.582 50.512 106.681 50.72C105.78 50.9627 104.93 51.084 104.133 51.084C102.192 51.084 100.597 50.564 99.3491 49.524C98.1357 48.5187 97.5291 47.3227 97.5291 45.936C97.5291 44.6187 98.1184 43.336 99.2971 42.088C100.51 40.8053 102.504 39.748 105.277 38.916C106.386 38.604 107.617 38.3787 108.969 38.24C110.321 38.0667 111.725 37.98 113.181 37.98C114.082 37.98 114.966 38.0147 115.833 38.084C116.734 38.1187 117.566 38.2227 118.329 38.396C119.334 36.8707 120.27 35.2933 121.137 33.664C122.004 32 122.905 30.1973 123.841 28.256C121.102 28.3253 118.728 27.9267 116.717 27.06C114.706 26.1587 113.146 24.9627 112.037 23.472C110.962 21.9813 110.425 20.3867 110.425 18.688C110.425 17.3013 110.824 15.9493 111.621 14.632C112.418 13.28 113.666 12.0667 115.365 10.992C117.098 9.88266 119.3 9.016 121.969 8.392C122.142 8.32266 122.298 8.288 122.437 8.288C122.61 8.288 122.766 8.288 122.905 8.288C123.425 8.288 123.685 8.392 123.685 8.6C123.685 8.94666 123.13 9.18933 122.021 9.328C120.218 9.536 118.624 10.1773 117.237 11.252C115.885 12.3267 114.828 13.6093 114.065 15.1C113.337 16.5907 112.973 18.0987 112.973 19.624C112.973 20.9413 113.285 22.172 113.909 23.316C114.533 24.46 115.521 25.396 116.873 26.124C118.225 26.8173 119.976 27.164 122.125 27.164C122.888 27.164 123.702 27.112 124.569 27.008C124.708 26.7307 124.933 26.176 125.245 25.344C125.592 24.4773 125.973 23.5067 126.389 22.432C126.805 21.3573 127.204 20.3173 127.585 19.312C128.001 18.3067 128.33 17.4747 128.573 16.816C128.85 16.1227 128.989 15.776 128.989 15.776C130.584 11.7893 132.213 8.66933 133.877 6.416C135.576 4.128 137.205 2.516 138.765 1.58C140.36 0.643998 141.781 0.175997 143.029 0.175997C144.381 0.175997 145.49 0.574664 146.357 1.372C147.258 2.16933 147.744 3.07066 147.813 4.076C147.848 4.388 147.865 4.61333 147.865 4.752C147.865 4.89066 147.865 5.064 147.865 5.272C147.865 7.31733 147.449 9.36266 146.617 11.408C145.82 13.4533 144.693 15.3947 143.237 17.232C141.816 19.0693 140.169 20.7333 138.297 22.224C136.46 23.7147 134.484 24.9627 132.369 25.968C130.289 26.9733 128.174 27.6667 126.025 28.048C125.505 29.088 125.037 30.024 124.621 30.856C124.24 31.6533 123.806 32.52 123.321 33.456C122.836 34.392 122.194 35.588 121.397 37.044C121.154 37.4947 120.964 37.824 120.825 38.032C120.721 38.2053 120.548 38.4827 120.305 38.864C122.038 39.28 123.928 39.8693 125.973 40.632C128.018 41.36 130.029 42.244 132.005 43.284C134.016 44.2893 135.801 45.3987 137.361 46.612C139.302 48.1027 140.672 49.784 141.469 51.656C142.301 53.528 142.717 55.1747 142.717 56.596C142.717 57.6013 142.561 58.364 142.249 58.884C141.798 59.6467 141.348 60.132 140.897 60.34C140.446 60.5827 140.1 60.704 139.857 60.704ZM126.753 26.644C129.11 26.124 131.416 25.188 133.669 23.836C135.922 22.4493 137.95 20.7853 139.753 18.844C141.556 16.868 142.994 14.736 144.069 12.448C145.144 10.1253 145.681 7.768 145.681 5.376C145.681 4.78666 145.525 4.30133 145.213 3.92C144.901 3.53866 144.45 3.348 143.861 3.348C143.064 3.348 142.041 3.79866 140.793 4.7C139.545 5.56666 138.124 7.04 136.529 9.12C134.934 11.1653 133.218 13.9907 131.381 17.596C131.381 17.596 131.138 18.0467 130.653 18.948C130.202 19.8493 129.613 20.9933 128.885 22.38C128.192 23.732 127.481 25.1533 126.753 26.644ZM103.405 49.576C104.168 49.576 104.982 49.472 105.849 49.264C106.75 49.056 107.686 48.7267 108.657 48.276C111.569 46.8547 114.256 44.3933 116.717 40.892C115.92 40.7187 115.088 40.5973 114.221 40.528C113.354 40.424 112.47 40.372 111.569 40.372C110.633 40.372 109.662 40.424 108.657 40.528C107.686 40.632 106.733 40.8227 105.797 41.1C103.474 41.724 101.689 42.5213 100.441 43.492C99.2277 44.4627 98.6211 45.4507 98.6211 46.456C98.6211 47.3227 99.0544 48.0507 99.9211 48.64C100.788 49.264 101.949 49.576 103.405 49.576ZM141.616 45.208C140.333 45.208 139.172 44.792 138.132 43.96C137.126 43.128 136.624 41.8627 136.624 40.164C136.624 38.604 137.005 36.94 137.768 35.172C138.53 33.3693 139.501 31.792 140.68 30.44C141.685 29.2613 142.812 28.2907 144.06 27.528C145.308 26.7653 146.486 26.384 147.596 26.384C148.358 26.384 149.017 26.592 149.572 27.008C150.161 27.4587 150.456 28.1 150.456 28.932C150.456 29.7987 150.126 30.752 149.468 31.792C148.809 32.832 147.873 33.8027 146.66 34.704C146.14 35.0853 145.481 35.4493 144.684 35.796C143.886 36.1427 143.089 36.4373 142.292 36.68C141.494 36.888 140.836 36.992 140.316 36.992C140.142 37.408 139.969 37.9627 139.796 38.656C139.657 39.3493 139.588 40.06 139.588 40.788C139.588 41.6547 139.761 42.4347 140.108 43.128C140.454 43.8213 141.096 44.168 142.032 44.168C143.176 44.168 144.216 43.8387 145.152 43.18C146.088 42.5213 146.92 41.7067 147.648 40.736C148.376 39.7307 148.982 38.7253 149.468 37.72C149.988 36.7147 150.404 35.8653 150.716 35.172C150.924 34.6867 151.201 34.444 151.548 34.444C151.721 34.444 151.808 34.5307 151.808 34.704C151.808 34.8427 151.756 35.016 151.652 35.224C151.166 36.264 150.646 37.3733 150.092 38.552C149.537 39.696 148.878 40.788 148.116 41.828C147.353 42.8333 146.434 43.648 145.36 44.272C144.32 44.896 143.072 45.208 141.616 45.208ZM140.68 36.056C141.165 36.056 141.98 35.8827 143.124 35.536C144.268 35.1547 145.308 34.5653 146.244 33.768C147.145 32.9707 147.838 32.104 148.324 31.168C148.809 30.1973 149.052 29.3827 149.052 28.724C149.052 27.9613 148.774 27.58 148.22 27.58C147.804 27.58 147.232 27.8573 146.504 28.412C145.776 28.9667 144.874 29.9027 143.8 31.22C143.141 32.052 142.517 32.9533 141.928 33.924C141.338 34.8947 140.922 35.6053 140.68 36.056ZM162.054 45.156C161.673 45.1907 161.239 45.104 160.754 44.896C160.269 44.688 159.835 44.3067 159.454 43.752C159.107 43.1973 158.934 42.4173 158.934 41.412C158.934 40.58 159.09 39.5747 159.402 38.396C158.986 39.0547 158.449 39.8693 157.79 40.84C157.131 41.776 156.421 42.608 155.658 43.336C154.999 43.96 154.375 44.4107 153.786 44.688C153.197 44.9653 152.659 45.104 152.174 45.104C151.273 45.104 150.545 44.7053 149.99 43.908C149.435 43.076 149.158 42.0013 149.158 40.684C149.158 39.2973 149.505 37.72 150.198 35.952C150.891 34.184 152.018 32.3467 153.578 30.44C154.583 29.2267 155.797 28.256 157.218 27.528C158.674 26.7653 160.095 26.384 161.482 26.384C162.279 26.384 163.042 26.5227 163.77 26.8C164.498 27.0427 165.139 27.4587 165.694 28.048C165.937 28.2907 166.058 28.568 166.058 28.88C166.058 29.088 165.971 29.2613 165.798 29.4C165.625 29.5387 165.399 29.5733 165.122 29.504C164.741 28.2907 163.926 27.684 162.678 27.684C162.089 27.684 161.413 27.8747 160.65 28.256C159.471 28.88 158.241 29.9027 156.958 31.324C155.71 32.7453 154.618 34.2187 153.682 35.744C153.543 35.952 153.318 36.3507 153.006 36.94C152.729 37.5293 152.451 38.188 152.174 38.916C151.897 39.644 151.706 40.3547 151.602 41.048C151.567 41.256 151.55 41.412 151.55 41.516C151.55 41.5853 151.55 41.7067 151.55 41.88C151.55 43.024 151.983 43.596 152.85 43.596C153.89 43.596 155.069 42.8333 156.386 41.308C157.287 40.1987 158.102 39.0373 158.83 37.824C159.558 36.6107 160.303 35.3107 161.066 33.924C161.586 32.988 162.071 32.208 162.522 31.584C162.973 30.96 163.614 30.648 164.446 30.648C164.827 30.648 165.209 30.7 165.59 30.804C165.971 30.908 166.37 30.9253 166.786 30.856C166.509 31.1333 166.127 31.6533 165.642 32.416C165.191 33.1787 164.706 34.0453 164.186 35.016C163.666 35.9867 163.198 36.9747 162.782 37.98C162.366 38.9853 162.071 39.852 161.898 40.58C161.863 40.788 161.811 41.0827 161.742 41.464C161.707 41.8453 161.69 42.1227 161.69 42.296C161.69 43.2667 161.967 43.752 162.522 43.752C163.077 43.752 163.666 43.4227 164.29 42.764C164.949 42.1053 165.59 41.2907 166.214 40.32C166.838 39.3493 167.41 38.3787 167.93 37.408C168.45 36.4027 168.866 35.588 169.178 34.964C169.317 34.6173 169.525 34.444 169.802 34.444C169.975 34.444 170.062 34.5653 170.062 34.808C170.062 34.912 170.01 35.1027 169.906 35.38C169.49 36.2467 168.987 37.2347 168.398 38.344C167.809 39.4187 167.167 40.476 166.474 41.516C165.781 42.5213 165.053 43.3707 164.29 44.064C163.562 44.7227 162.817 45.0867 162.054 45.156ZM171.466 19.156C171.05 20.0227 170.443 20.9067 169.646 21.808C168.883 22.6747 167.947 23.108 166.838 23.108C166.075 23.108 165.33 22.952 164.602 22.64C163.909 22.2933 163.215 21.964 162.522 21.652C161.829 21.34 161.118 21.184 160.39 21.184C159.835 21.184 159.35 21.34 158.934 21.652C158.553 21.964 158.241 22.3453 157.998 22.796C157.963 22.9 157.807 22.952 157.53 22.952C157.357 22.952 157.183 22.9347 157.01 22.9C156.871 22.8307 156.819 22.7613 156.854 22.692C157.305 21.8947 157.911 21.08 158.674 20.248C159.437 19.416 160.355 19 161.43 19C162.227 19 162.99 19.156 163.718 19.468C164.446 19.78 165.157 20.092 165.85 20.404C166.578 20.6813 167.306 20.82 168.034 20.82C168.623 20.82 169.109 20.664 169.49 20.352C169.871 20.0053 170.183 19.572 170.426 19.052C170.495 18.948 170.634 18.896 170.842 18.896C171.015 18.896 171.171 18.9307 171.31 19C171.449 19.0347 171.501 19.0867 171.466 19.156ZM171.599 45C170.282 45 169.311 44.5667 168.687 43.7C168.063 42.7987 167.751 41.7067 167.751 40.424C167.751 38.864 168.115 37.2347 168.843 35.536C169.537 33.9413 170.421 32.4853 171.495 31.168C172.57 29.8507 173.731 28.7933 174.979 27.996C176.227 27.164 177.441 26.748 178.619 26.748C179.937 26.748 180.907 27.1813 181.531 28.048C182.155 28.9147 182.467 30.0067 182.467 31.324C182.467 32.9187 182.103 34.548 181.375 36.212C180.959 37.148 180.37 38.188 179.607 39.332C178.845 40.4413 177.978 41.464 177.007 42.4C177.215 42.7813 177.51 43.1107 177.891 43.388C178.273 43.6307 178.793 43.752 179.451 43.752C180.283 43.752 181.063 43.4053 181.791 42.712C182.554 42.0187 183.247 41.1867 183.871 40.216C184.495 39.2107 185.05 38.2053 185.535 37.2C186.021 36.1947 186.419 35.38 186.731 34.756C186.835 34.548 187.009 34.444 187.251 34.444C187.39 34.444 187.494 34.5133 187.563 34.652C187.633 34.756 187.615 34.9293 187.511 35.172C187.303 35.692 186.957 36.472 186.471 37.512C185.986 38.5173 185.397 39.5747 184.703 40.684C184.01 41.7587 183.213 42.6773 182.311 43.44C181.41 44.2027 180.405 44.584 179.295 44.584C178.533 44.584 177.874 44.4627 177.319 44.22C176.765 43.9427 176.314 43.6133 175.967 43.232C175.239 43.7867 174.511 44.22 173.783 44.532C173.055 44.844 172.327 45 171.599 45ZM172.379 43.856C173.315 43.856 174.321 43.4053 175.395 42.504C175.118 42.088 174.91 41.6547 174.771 41.204C174.633 40.7533 174.563 40.3373 174.563 39.956C174.563 39.332 174.702 38.7947 174.979 38.344C175.291 37.8933 175.759 37.668 176.383 37.668C176.834 37.668 177.198 37.8413 177.475 38.188C177.787 38.5 177.943 38.864 177.943 39.28C177.943 39.384 177.926 39.488 177.891 39.592C177.891 39.6613 177.874 39.748 177.839 39.852C178.429 39.0547 178.983 38.1187 179.503 37.044C180.647 34.5827 181.219 32.5547 181.219 30.96C181.219 30.1627 181.063 29.5387 180.751 29.088C180.439 28.6373 179.971 28.412 179.347 28.412C178.619 28.412 177.822 28.724 176.955 29.348C176.123 29.972 175.309 30.804 174.511 31.844C173.749 32.884 173.073 34.0453 172.483 35.328C171.929 36.5067 171.478 37.6507 171.131 38.76C170.819 39.8347 170.663 40.7707 170.663 41.568C170.663 42.2613 170.802 42.816 171.079 43.232C171.357 43.648 171.79 43.856 172.379 43.856Z" fill="white"/>
<path d="M9.328 59.576V60.032H5.524V63.548H8.848V64.004H5.524V68H4.984V59.576H9.328ZM19.0173 68.096C18.2413 68.096 17.5413 67.916 16.9173 67.556C16.2933 67.188 15.8053 66.676 15.4533 66.02C15.1013 65.364 14.9253 64.624 14.9253 63.8C14.9253 62.968 15.1013 62.228 15.4533 61.58C15.8053 60.924 16.2933 60.416 16.9173 60.056C17.5413 59.688 18.2413 59.504 19.0173 59.504C19.7933 59.504 20.4933 59.688 21.1173 60.056C21.7413 60.416 22.2293 60.924 22.5813 61.58C22.9333 62.228 23.1093 62.968 23.1093 63.8C23.1093 64.624 22.9333 65.364 22.5813 66.02C22.2293 66.676 21.7413 67.188 21.1173 67.556C20.4933 67.916 19.7933 68.096 19.0173 68.096ZM19.0173 67.616C19.6813 67.616 20.2813 67.46 20.8173 67.148C21.3533 66.836 21.7733 66.392 22.0773 65.816C22.3893 65.24 22.5453 64.568 22.5453 63.8C22.5453 63.024 22.3893 62.348 22.0773 61.772C21.7733 61.196 21.3533 60.752 20.8173 60.44C20.2813 60.128 19.6813 59.972 19.0173 59.972C18.3533 59.972 17.7533 60.128 17.2173 60.44C16.6813 60.752 16.2573 61.196 15.9453 61.772C15.6333 62.348 15.4773 63.024 15.4773 63.8C15.4773 64.568 15.6333 65.24 15.9453 65.816C16.2573 66.392 16.6813 66.836 17.2173 67.148C17.7533 67.46 18.3533 67.616 19.0173 67.616ZM33.8978 59.576V60.032H31.4978V68H30.9578V60.032H28.5578V59.576H33.8978ZM43.4392 68.096C42.6632 68.096 41.9632 67.916 41.3392 67.556C40.7152 67.188 40.2272 66.676 39.8752 66.02C39.5232 65.364 39.3472 64.624 39.3472 63.8C39.3472 62.968 39.5232 62.228 39.8752 61.58C40.2272 60.924 40.7152 60.416 41.3392 60.056C41.9632 59.688 42.6632 59.504 43.4392 59.504C44.2152 59.504 44.9152 59.688 45.5392 60.056C46.1632 60.416 46.6512 60.924 47.0032 61.58C47.3552 62.228 47.5312 62.968 47.5312 63.8C47.5312 64.624 47.3552 65.364 47.0032 66.02C46.6512 66.676 46.1632 67.188 45.5392 67.556C44.9152 67.916 44.2152 68.096 43.4392 68.096ZM43.4392 67.616C44.1032 67.616 44.7032 67.46 45.2392 67.148C45.7752 66.836 46.1952 66.392 46.4992 65.816C46.8112 65.24 46.9672 64.568 46.9672 63.8C46.9672 63.024 46.8112 62.348 46.4992 61.772C46.1952 61.196 45.7752 60.752 45.2392 60.44C44.7032 60.128 44.1032 59.972 43.4392 59.972C42.7752 59.972 42.1752 60.128 41.6392 60.44C41.1032 60.752 40.6792 61.196 40.3672 61.772C40.0552 62.348 39.8992 63.024 39.8992 63.8C39.8992 64.568 40.0552 65.24 40.3672 65.816C40.6792 66.392 41.1032 66.836 41.6392 67.148C42.1752 67.46 42.7752 67.616 43.4392 67.616ZM60.5877 62.06C60.3477 61.428 59.9477 60.924 59.3877 60.548C58.8357 60.172 58.1797 59.984 57.4197 59.984C56.7557 59.984 56.1557 60.14 55.6197 60.452C55.0837 60.764 54.6597 61.208 54.3477 61.784C54.0357 62.36 53.8797 63.032 53.8797 63.8C53.8797 64.568 54.0357 65.24 54.3477 65.816C54.6597 66.392 55.0837 66.836 55.6197 67.148C56.1557 67.452 56.7557 67.604 57.4197 67.604C58.0597 67.604 58.6397 67.46 59.1597 67.172C59.6797 66.884 60.0957 66.476 60.4077 65.948C60.7197 65.412 60.8917 64.788 60.9237 64.076H57.1677V63.62H61.4757V63.98C61.4517 64.764 61.2637 65.468 60.9117 66.092C60.5597 66.716 60.0797 67.204 59.4717 67.556C58.8637 67.908 58.1797 68.084 57.4197 68.084C56.6437 68.084 55.9437 67.904 55.3197 67.544C54.6957 67.176 54.2077 66.668 53.8557 66.02C53.5037 65.364 53.3277 64.624 53.3277 63.8C53.3277 62.968 53.5037 62.228 53.8557 61.58C54.2077 60.924 54.6957 60.416 55.3197 60.056C55.9437 59.688 56.6437 59.504 57.4197 59.504C58.3237 59.504 59.1037 59.732 59.7597 60.188C60.4237 60.636 60.9077 61.26 61.2117 62.06H60.5877ZM72.157 68L69.997 64.412H69.949H68.149V68H67.609V59.576H69.925C70.861 59.576 71.561 59.796 72.025 60.236C72.497 60.676 72.733 61.26 72.733 61.988C72.733 62.636 72.549 63.172 72.181 63.596C71.821 64.012 71.293 64.268 70.597 64.364L72.805 68H72.157ZM68.149 63.956H69.949C70.693 63.956 71.249 63.776 71.617 63.416C71.985 63.056 72.169 62.58 72.169 61.988C72.169 60.7 71.421 60.056 69.925 60.056H68.149V63.956ZM83.6116 65.84H79.6156L78.8116 68H78.2236L81.3196 59.768H81.9196L85.0036 68H84.4156L83.6116 65.84ZM83.4436 65.384L81.6196 60.476L79.7836 65.384H83.4436ZM95.203 59.576V60.032H91.399V63.548H94.723V64.004H91.399V68H90.859V59.576H95.203ZM101.676 59.576V68H101.136V59.576H101.676ZM112.932 65.84H108.936L108.132 68H107.544L110.64 59.768H111.24L114.324 68H113.736L112.932 65.84ZM112.764 65.384L110.94 60.476L109.104 65.384H112.764Z" fill="white"/>
</svg>
